
<global>
amp_veltrack=0
</global>

<group>
amp_veltrack=0
ampeg_decay=20
ampeg_release=0.35
ampeg_sustain=0
group_label=Group_0-45
lpc_hicc1=42
lpc_locc1=0

<region>
hikey=a3
hivel=127
lokey=G#3
lovel=0
lpc=2TcEQh2Ye8JiSKtBw0dfQPkCb0HHVZPAAN6pv/f6ZMBO5FfA+0iEP48cMEAKiMy+AFA0vvn1t78IF3E/Pt8ZP/KAA76u9BE/43UlP/iDCsA5a1Q/unR9PFIAi7/LjJ0/
lpc_rms=-38.04
offset=6794
pitch_keycenter=a3
sample=Alto_turn_minor_PP_A3.opus
tune=+32
</region>

<region>
hikey=a4
hivel=127
lokey=g#4
lovel=0
lpc=0JUCQp5oecLFFghCNr5lwdUrsUFWgmrBzfc3Qb6BJMEpkE6///amQJUdpz6bYBDBatAcQT52fMCLCUrAjRQdQY2h6MDqr6c/PJC0vm61zj5JrNW+6hYVv1J2LEDVLF2/
lpc_rms=-32.99
offset=4977
pitch_keycenter=a4
sample=Alto_turn_minor_PP_A4.opus
tune=+9
</region>

<region>
hikey=a5
hivel=127
lokey=g#5
lovel=0
lpc=ggDnQY/VF8Jaeg5BWKEGwWZQgEEvEcbAMZXAQAVGK8ANEKk/eYTPvoNIeUA8lSfBVq/EQGfBzL94wWe/FMK/QO3aFMBCdCFAzBxTPn5jRj8GqoLAt1Ugv9kgCL8m7BtA
lpc_rms=-26.37
offset=1832
pitch_keycenter=a5
sample=Alto_turn_minor_PP_A5.opus
tune=-6
</region>

<region>
hikey=b3
hivel=127
lokey=a#3
lovel=0
lpc=YMxUQiT/x8I7DAVCY4r1QKbhi0EnX7DAP90DwKgKgMAZ0aq9S7MuP/xE2b445T/AxZdTPxmy/j/B3dG8FamTP/s0Fr6eWo+/ltPyP9VFVL+nXoU+0ahvv6GIWsAjCmNA
lpc_rms=-34.20
pitch_keycenter=b3
sample=Alto_turn_minor_PP_B3.opus
tune=+19
</region>

<region>
hikey=b4
hivel=127
lokey=a#4
lovel=0
lpc=FV0SQhelh8JTFRpCkWeawbYSuUE4OVHB9YNlQdd2dcF0uJxAYHKNPzgcQz844xPBEGJBQWbG8MBbyc+/jysrQZhjK8Ebt8NAgI2QPyJtIMDG3YS+fkw3P+lT8L/GVCVA
lpc_rms=-31.11
offset=2205
pitch_keycenter=b4
sample=Alto_turn_minor_PP_B4.opus
tune=+11
</region>

<region>
hikey=b5
hivel=127
lokey=a#5
lovel=0
lpc=pk36QSwFBsJ0n08/vpJsP7w5XkFVKsLAQs5nQIjhBUAei2nA2ePOv24RlkAbTgjAH2suQVuCkMDY18zAkf9eQB6hYkDnLUFAI5Swv571kEC1PaLAZQi0vy+Bpr+8Z2NA
lpc_rms=-22.27
offset=2819
pitch_keycenter=b5
sample=Alto_turn_minor_PP_B5.opus
tune=-2
</region>

<region>
hikey=c#4
hivel=127
lokey=c4
lovel=0
lpc=AqSLQnniAcOddzBCvEznQArFyEHX7CvB8N17wGyZ771lbABAruvXvsV/cz7CcOTAhEOYPSDq+T9RlxI/7tNaP4AiYj5xjM0/YeijPwjHhL5r/zRA1zyrwC8cB8GdlBVB
lpc_rms=-30.62
offset=250
pitch_keycenter=c#4
sample=Alto_turn_minor_PP_C#4.opus
tune=+15
</region>

<region>
hikey=c#5
hivel=127
lokey=c5
lovel=0
lpc=6h6BQTNf48E0ol9BpysAwUmNSkEBR9/AhTbQQAx19MAQ6YNAWlAOwFwhTEBEfLLAA+TJQM7NgsDfSjk/xk7hP6ZrIcCLvh1AaOHuPW699j0uyqa+5oygPlPPl8CDKY1A
lpc_rms=-36.30
offset=2906
pitch_keycenter=c#5
sample=Alto_turn_minor_PP_C#5.opus
tune=+8
</region>

<region>
hikey=c#6
hivel=127
lokey=c6
lovel=0
lpc=cJmwQXcSj8E9Oso/EcM6wL0Dt0DD7ay/7eDqQIxVnsAe30ZANcYYQA6HAUFWjHTAsdWgQLtkwr8ttGq/QL+dQG/dCr/Rz2xAfinBP1S+6b93t0A/JKwuP0j8N8D6OOtA
lpc_rms=-24.50
offset=1447
pitch_keycenter=C#6
sample=Alto_turn_minor_PP_C#6.opus
tune=-19
</region>

<region>
hikey=d#4
hivel=127
lokey=d4
lovel=0
lpc=nWRVQhCs48JvLoVCdXNPwYnApEGgvY/BCoxOQefM+cBILwY/WV42v79b4D/HoUPBhsyGQSzzJMEyCik+rrrsQCExkcCM+IlA7lQxwFiYLsA2DJpAPHiJwEi3QcCa/ppA
lpc_rms=-29.72
offset=2712
pitch_keycenter=d#4
sample=Alto_turn_minor_PP_D#4.opus
tune=+4
</region>

<region>
hikey=d#5
hivel=127
lokey=d5
lovel=0
lpc=0njWQUnWLcIAAJlB0OIWwVXxkkGTnTvBh/y9QOtcoMAoS7hAlKWfwEA+3UC7KB3B8ZoFQV001MD2A1VA32owQC2eeMDkepNA8+TJvlhdO0BTFaTAsW6Uv8jz67+11bVA
lpc_rms=-29.10
offset=2030
pitch_keycenter=d#5
sample=Alto_turn_minor_PP_D#5.opus
tune=-4
</region>

<region>
hikey=f4
hivel=127
lokey=e4
lovel=0
lpc=0ho7QiZa08KoyYhCjGW1wWpdGELCmgLCfFV6QdzH3cAMkQ3BC6d0QQT178C0C5LAd3UFQZFB8sBn0eY/8XvYQK3BtcAStoZARfRZvwXU7L+6iRPAeGWDQPfQkMBx5DBA
lpc_rms=-29.66
offset=371
pitch_keycenter=f4
sample=Alto_turn_minor_PP_F4.opus
tune=-11
</region>

<region>
hikey=f5
hivel=127
lokey=e5
lovel=0
lpc=juSHQpe20MKc3SpClRquwQPGJULEo7nB8PWKQbOui8Ec7qNA6pqFQO7UNUEttdnBai+sQS8PQMF2wTdAgMFWQUVxCr7KDrG+qO6xwIryxsAtZ34/TkGpQMwQ9UDVsDnA
lpc_rms=-19.75
offset=1426
pitch_keycenter=f5
sample=Alto_turn_minor_PP_F5.opus
tune=-6
</region>

<region>
hikey=g4
hivel=127
lokey=f#4
lovel=0
lpc=RvSaQobWIsMV5cdCaYL5wbaaK0IyysnB0m4uQWtDgsHWNhhAwuaqQAfpOEDqT5zBBrC4QbPUDMEzpHPAFZpVQQIbfsHk699AkaaaQDH7u8ACW5g+WbtHwMEXckCA970/
lpc_rms=-26.59
offset=1627
pitch_keycenter=g4
sample=Alto_turn_minor_PP_G4.opus
tune=-7
</region>

<region>
hikey=g5
hivel=127
lokey=f#5
lovel=0
lpc=dH4CQmUeS8JfMKJBgFDvwK5Hg0FgKBvB30X+QAkLJ8EoCxRB27GmwNBPwECamBTBdYE3QW4tPsHnoLxAALfXQAGsAMGY5jA/jdGSQENDU8DqvLw/1XE0QJMvk79zeam/
lpc_rms=-25.96
offset=1017
pitch_keycenter=g5
sample=Alto_turn_minor_PP_G5.opus
tune=-21
</region>
</group>

<group>
amp_veltrack=0
ampeg_decay=20
ampeg_release=0.35
ampeg_sustain=0
group_label=Group_46-90
lpc_hicc1=84
lpc_locc1=43

<region>
hikey=a3
hivel=127
lokey=G#3
lovel=0
lpc=pzEJQkJZocKSwndCY0XnwRUk+EGFY7DByGtoQR85SMGJeAjBsAOZQWLsDsHv+Ru/7d/rQPTJBMFYM4c/swanQBmAjMCMfzA/3TkAQIqJIsCFQU6/ZOqRQLFSg8DlrcE/
lpc_rms=-30.17
offset=2890
pitch_keycenter=a3
sample=Alto_turn_minor_MF_A3.opus
tune=+3
</region>

<region>
hikey=a4
hivel=127
lokey=g#4
lovel=0
lpc=L4zsQbQGgsKAOTtCPYXCwW4G40FFjLXBpKeYQdN3S8EONw7BWTR0QbfiQcA23v3AKnx4QTr1icFOO0lBQ27NwP9MdUAOrHjAjXKrPoaKpEAFlqDACguFQLpw38CZzJFA
lpc_rms=-25.35
offset=12226
pitch_keycenter=a4
sample=Alto_turn_minor_MF_A4.opus
tune=-2
</region>

<region>
hikey=a5
hivel=127
lokey=g#5
lovel=0
lpc=+LOqQQ6v2cE9d9pAL55zwP10GEGnDJbAfiq7QDW0wr99Y4nAs3yhPyJZ/D9q0U7AVy4GQfuBub8Mib2/NZHPv4kXL8Cd41RAFLaZP4GXWUCVZCPAtjWFP/49bMCNogVA
lpc_rms=-21.24
offset=2112
pitch_keycenter=a5
sample=Alto_turn_minor_MF_A5.opus
tune=-12
</region>

<region>
hikey=b3
hivel=127
lokey=a#3
lovel=0
lpc=fhscQveCu8IU2JJCfiEEwsEaE0LNDvfBKeqPQSCUksFfFvZAh123QLGo479vO/7AKM4tQVkmJsFuYWtAjBALQWirasGppRpBVKSHvAt5Kr+zVovAjFCSQAMmbMCHlgJA
lpc_rms=-27.85
offset=1490
pitch_keycenter=b3
sample=Alto_turn_minor_MF_B3.opus
tune=-5
</region>

<region>
hikey=b4
hivel=127
lokey=a#4
lovel=0
lpc=v00CQpRRiMJRNEBCD97WwTRiDUL0SfXBjw6pQaYAf8FTCZC/EaFcQfac48CdagfAWUfUQNiOHsG6ULBAgNogQCjPPsCxX6k+VhLwv6cMsUBUQgTBaaZRQdrwNsHdpnxA
lpc_rms=-23.86
offset=1648
pitch_keycenter=b4
sample=Alto_turn_minor_MF_B4.opus
tune=-3
</region>

<region>
hikey=b5
hivel=127
lokey=a#5
lovel=0
lpc=WSnJQU7E2cHepxhBfSfRwLngOkFhuNDADKDGQCUILL9Wn+LAMbkNQfuCYr/eKwnAnpLQQFoRGsCjOSTA4thcQMya+75Cnww+kOu8P7QeoEBGMezAKTR3QN16aL8ifhbA
lpc_rms=-18.32
offset=1738
pitch_keycenter=b5
sample=Alto_turn_minor_MF_B5.opus
tune=-8
</region>

<region>
hikey=c#4
hivel=127
lokey=c4
lovel=0
lpc=Zd36QSuvjML5l0VChv2owaSu30HKeMPBTaqBQcLeKcE1oPTA1GyCQbsD6MB/8vS/c9TuQMW4HsEZvYpAnl8fQNrR978z5jQ/5w3bv1JJ7D/Mr7HAn04tQW7ZHcEUwXlA
lpc_rms=-27.23
offset=1775
pitch_keycenter=c#4
sample=Alto_turn_minor_MF_C#4.opus
tune=+2
</region>

<region>
hikey=c#5
hivel=127
lokey=c5
lovel=0
lpc=OCkwQVySk8FRFO5AqWAWwAFhxUDd/ZTA2WWJQFC1mMB/vmxAFV/Bv63mGEB2AsLAyFGtQDFVQ8B0oSo/GJMbQLxD5r+pUUM9Z0OGP2k6HL78Zd+83cuuvY2gIsD0PyNA
lpc_rms=-28.79
offset=1745
pitch_keycenter=c#5
sample=Alto_turn_minor_MF_C#5.opus
tune=-6
</region>

<region>
hikey=c#6
hivel=127
lokey=c6
lovel=0
lpc=Ioi4QQ3ihsGlyxbANo+9vzexKkEfpBy+RvAqQNs7EMDsBw3A53CtQMZkEUEY9Jw/rglmv8M+3L+96as9vxgSQW/Mg79nTC4+Fjz3Pu+xK0CimiXAMOS2PqUA0D/4bm9A
lpc_rms=-19.57
offset=3656
pitch_keycenter=C#6
sample=Alto_turn_minor_MF_C#6.opus
tune=-27
</region>

<region>
hikey=d#4
hivel=127
lokey=d4
lovel=0
lpc=MLMFQtzBnsLeRHVCZJvdwS1c/0H6QePB8GudQbhqi8G0oxpAXTwSQVX5icAWPabAoTAsQUHtIMFAf4tACle0QOW2QMHP5+xALwV5v1KzDUDnqrrASZPRQLtbpcBjKwpA
lpc_rms=-26.32
offset=598
pitch_keycenter=d#4
sample=Alto_turn_minor_MF_D#4.opus
tune=-5
</region>

<region>
hikey=d#5
hivel=127
lokey=d5
lovel=0
lpc=GaWaQb8P3cHSuRtBS4DfwMEBQEEfvq/AiH/CQOHfNsAoA53AYpKnQKD/oT01COS/mcFSQAekssBE/S9AEAOeP1OXgb+2bydAF0PMvg3+m0DkyQnBQ9tVQIGMlMD2sshA
lpc_rms=-22.82
offset=5479
pitch_keycenter=d#5
sample=Alto_turn_minor_MF_D#5.opus
tune=-8
</region>

<region>
hikey=f4
hivel=127
lokey=e4
lovel=0
lpc=ap9fQn6hDcMAaepCsms7wrIWTkIba17C0nb5QTbRx8HC4ZtBuZ2FwH9YzEBkGOnBfSUVQmJiw8GhqxlBC9+aQB96A8Ey1pNAxtX6v+8wbMBsJ8tAuY/twH6Z30ChQSfA
lpc_rms=-20.64
offset=900
pitch_keycenter=f4
sample=Alto_turn_minor_MF_F4.opus
tune=-11
</region>

<region>
hikey=f5
hivel=127
lokey=e5
lovel=0
lpc=b7hNQl6tn8KUoxZCWBHWwbJAGUImKqjB23ebQZtnXsAs0K7B8pWjQUQkWsCnA+rAqTsmQYUQEsFROZBAcka3QP98p0BQr3fATIILwRGkxUACykXB5beiQTMQl8B4xIo+
lpc_rms=-14.00
offset=1867
pitch_keycenter=f5
sample=Alto_turn_minor_MF_F5.opus
tune=-13
</region>

<region>
hikey=g4
hivel=127
lokey=f#4
lovel=0
lpc=2tFNQhrC9sLqGcFCzCIfwqG9O0L2hkvCkpIPQpdE68HiojtBDkr8QJZd/r9Zo3jB7panQYnGiMES7RZANBeKQUGCpsHS/FBBX9MDweUWHUF7qybBZms4QRS2W8GWauJA
lpc_rms=-21.33
offset=595
pitch_keycenter=g4
sample=Alto_turn_minor_MF_G4.opus
tune=-14
</region>

<region>
hikey=g5
hivel=127
lokey=f#5
lovel=0
lpc=Uy70QXKnRMLSULdBPNYgwSGxi0HRBVHBY2lFQUodEsGdAEC/Phe2PhiAIUH9zkvBgfoxQSslCsHb3qZAbO/SQEBpBsFwCcW/hWDyP71aWkC3jtm/Ca6TP5VROj/Jf4K/
lpc_rms=-20.26
offset=1364
pitch_keycenter=g5
sample=Alto_turn_minor_MF_G5.opus
tune=-26
</region>
</group>

<group>
amp_veltrack=0
ampeg_decay=20
ampeg_release=0.35
ampeg_sustain=0
group_label=Group_91-127
lpc_hicc1=127
lpc_locc1=85

<region>
hikey=a3
hivel=127
lokey=G#3
lovel=0
lpc=k6bHQTbWVsJhJhhC8bOiwTgj00HctKvBdN8KQXCjsT8q2hHBXypXQSHtD8Fgms+/DSnpQI8h58BpR3NA7n3xv0Z1OUDG0Pq+vbvLv0JDZ0Bv3JXABg5XQB/WWMC6wQ1A
lpc_rms=-24.07
offset=4066
pitch_keycenter=a3
sample=Alto_turn_minor_FF_A3.opus
tune=-10
</region>

<region>
hikey=a4
hivel=127
lokey=g#4
lovel=0
lpc=JyGZQQMEI8JhGOVBamFcwZGVg0GFjXzBBohjQeyBdMHNISFBARNov5kqIj9kk87A9fP6QFfZz8DjhjhAlxZ8QBH0+MAterZA2t6lvdzhEz8i76fACxeOQBbaRsDwaARA
lpc_rms=-21.76
offset=14216
pitch_keycenter=a4
sample=Alto_turn_minor_FF_A4.opus
tune=-15
</region>

<region>
hikey=a5
hivel=127
lokey=g#5
lovel=0
lpc=LLplQblijMGcco5AprsYvIC4kkBfGxPAUJ+HPmctaT7nIO8/IJKNv9dMQD/PCWvAqk/CQJY1fr9nqp2+plqivjq67b/OjC9AeYwFQDM77b+hrfe9MvjhP0SEgT7Y1e+/
lpc_rms=-18.61
offset=11884
pitch_keycenter=a5
sample=Alto_turn_minor_FF_A5.opus
tune=-20
</region>

<region>
hikey=b3
hivel=127
lokey=a#3
lovel=0
lpc=tB3uQdfWhcI4WD9CwlS6wSKnDEIamx3CfpLyQd4rbsExvcC/eT7+QNXR98BLny1Asg4GQC2oB8Bo+x/ATP/gQGK4lb9yDHvAZlOmvzAYg0AfYpTAU+ryQNXPw8D8uek/
lpc_rms=-22.15
offset=2669
pitch_keycenter=b3
sample=Alto_turn_minor_FF_B3.opus
tune=-8
</region>

<region>
hikey=b4
hivel=127
lokey=a#4
lovel=0
lpc=hbvsQZCgg8KYfTRCCZWJwdMIykE2r6vBBcguQRqEcMG9FVFBj6wpwKBiKUDBAD7BIatjQcd2LsEUaeBASYwGQIEtAcG5E4tAZMRXvm5sab4vPrM/xL83QEMFD8HfgKtA
lpc_rms=-18.13
offset=2175
pitch_keycenter=b4
sample=Alto_turn_minor_FF_B4.opus
tune=-15
</region>

<region>
hikey=b5
hivel=127
lokey=a#5
lovel=0
lpc=OQCnQXf7rsHQmAJBetyZv0I0kECUUtO/JZTkPxhUmb9yEzw+iz0hQIkkBUAyWpLApIC7QBqQVMBLVQRA+YUzQLCxNsAyR1s/lFJdQI5w9L5f2om+VHI5PxGyir/+eEHA
lpc_rms=-13.70
offset=1705
pitch_keycenter=b5
sample=Alto_turn_minor_FF_B5.opus
tune=-17
</region>

<region>
hikey=c#4
hivel=127
lokey=c4
lovel=0
lpc=VwrTQZDrdsIOEkFC2rDTwQoHCUI3yAPCHtrRQWqa08EPhpBBge/RwNKZikBTHRTBTz9JQZZeOsFYV4tATym6QHeF8cCMh6RA5FM/wFWy8T4JK+O/LOiFQPKOi8DB3gJA
lpc_rms=-24.89
offset=1273
pitch_keycenter=c#4
sample=Alto_turn_minor_FF_C#4.opus
tune=-3
</region>

<region>
hikey=c#5
hivel=127
lokey=c5
lovel=0
lpc=4EccQUI6isHmlQ5BdVSWwMU48UAMR6PAeX2GQIUIgsCgP/0/FWj8vgUd4D9h8orAy5+IQMDPQMDTHcA/wF84P5B+Y7/Cz2U/dDtAv960Zz+P2Sm/SNqSPsTi47+3nOI/
lpc_rms=-26.43
offset=1541
pitch_keycenter=c#5
sample=Alto_turn_minor_FF_C#5.opus
tune=-12
</region>

<region>
hikey=c#6
hivel=127
lokey=c6
lovel=0
lpc=1z2jQZTDSsGr0HC//q2Fv0/6qUBFy/+9TZxZQJseJ0Dfj3e+TTiVQP4MQ0DXsfW/2umdQEniO0D02XO/hMSTQKZtpT/5AglAxUUtQGjXPkB3/qTAB3NkwCmwCkCFYQdB
lpc_rms=-14.72
offset=849
pitch_keycenter=C#6
sample=Alto_turn_minor_FF_C#6.opus
tune=-39
</region>

<region>
hikey=d#4
hivel=127
lokey=d4
lovel=0
lpc=eafQQdoXa8LMvSNCVhtfwVAqrkGQXeLBz6uWQQhDXMCTUfjAhj0FQSFRIsCV24zAkh+eQIb5LD+nYYPAMpWXQMUmZMCgfi5AREEuwAIQSkBmCYDA27jLP7tyIz8vXrm9
lpc_rms=-20.69
offset=2657
pitch_keycenter=d#4
sample=Alto_turn_minor_FF_D#4.opus
tune=-8
</region>

<region>
hikey=d#5
hivel=127
lokey=d5
lovel=0
lpc=ph2PQZMzxsFX8NdAAQ2vwFE7UEGTLrLAo+OIQFIJmMCGbiq+ZNQaQDcL/z9FOXfAW0ftP0e0kL/vxRM9T5VuQBGRmMC1Qn1A8SbrPBBBdUBJh9zAyVQ7QJ/DnMC5S79A
lpc_rms=-18.43
offset=3310
pitch_keycenter=d#5
sample=Alto_turn_minor_FF_D#5.opus
tune=-11
</region>

<region>
hikey=f4
hivel=127
lokey=e4
lovel=0
lpc=9doWQpJ+pcLKXllCvsenwZVDGULAxxrCW8LBQe2eusFDTlVBPi8cv2Vuk0CbOVnBU/FqQTFXOsEOcr5A4UjOQOMcbcHl0ThBl9dFwCNigUA3ujPBarYRQX0nM8D8YrM+
lpc_rms=-16.19
offset=2593
pitch_keycenter=f4
sample=Alto_turn_minor_FF_F4.opus
tune=-14
</region>

<region>
hikey=f5
hivel=127
lokey=e5
lovel=0
lpc=H1giQvFJecK3IctBUYYMwY5NokHmFVLBsvcEQbhtw79tQ7HAF7WtQNkVOkCJsLvA00JyQHPQZcBCOoM/2/UPQUcijcAbJEJAJ+h3wBoaQsDwljxA86AXQAHBNEDkkuK+
lpc_rms=-10.06
offset=1181
pitch_keycenter=f5
sample=Alto_turn_minor_FF_F5.opus
tune=-16
</region>

<region>
hikey=g4
hivel=127
lokey=f#4
lovel=0
lpc=bk3kQTpAjMJGwmtC9irRwU2fv0EEPMLBp0yBQQlbLcFz/TM/T9AMQZZdacAjGQDBV0srQcD4FMGnhBRBBucBv30nG8Ek7RJBQVKkwC9OdUDA5WDAhneTQOXQtsDlpzZA
lpc_rms=-19.15
offset=847
pitch_keycenter=g4
sample=Alto_turn_minor_FF_G4.opus
tune=-19
</region>

<region>
hikey=g5
hivel=127
lokey=f#5
lovel=0
lpc=V2O5QUXlCML8gE1B2y+4vyUTCkHnLAfBAaDUQB2iMb+ouGfArg+LQOhNgr+qP4PAie/sQH94O8AQou6+DSKfQAiqi8DMTi8+rFDTP4+DGb3/rVm+cHc7QI1SHj/0EtS/
lpc_rms=-12.89
offset=1920
pitch_keycenter=g5
sample=Alto_turn_minor_FF_G5.opus
tune=-31
</region>
</group>

<group>
amp_veltrack=-77.0000
ampeg_attack=2.5
ampeg_release=0.35
group_label=PP
lpc_hicc1=42
lpc_locc1=0
volume=-4

<region>
hivel=127
key=B3
loop_end=259971
loop_mode=loop_continuous
loop_start=67818
loop_xfade=23004
lovel=0
lpc=Jl9pQjbq8cK74mtCCFA0wNZAqkESaxvBKH6+P/SVxsA5IeDAeuCWQKN+tUACyDTAKVbaPrWtMcB6TfK/LveSQAXmqb/01e8/nZV6Px4IMsBuehc/jX2hvrmGccAGj35A
lpc_rms=-32.46
sample=Alto_sustain_PP_A#3.opus
tune=-99
</region>

<region>
hivel=127
key=B4
loop_end=267580
loop_mode=loop_continuous
loop_start=69803
loop_xfade=23677
lovel=0
lpc=C8ShQVo0EMKoZqNBInaEwS5unkFfejTBWMBKQUCrA8HBOtW+iiy9vyXkgUBEBp7Af2WrQJeTX8A3H/q+PE8uQF3efMDiXK5AEisAwNkDO0AhB4LAlWi5P3N3lsDAppRA
lpc_rms=-32.27
sample=Alto_sustain_PP_A#4.opus
tune=-98
</region>

<region>
hivel=127
key=B5
loop_end=262609
loop_mode=loop_continuous
loop_start=68506
loop_xfade=23237
lovel=0
lpc=gqmZQbnA8cCEy4BAyoSRwAu7q0DsIJbAujUWQKU+XT7sMWA+18B5v9WDDkAxQbG/EeAAQMHA8j7njRTA/PvjPg5hhD/tFDG/bXrWvSJemr4noVZAL7cjwDR8Y8CZPw3B
lpc_rms=-29.08
sample=Alto_sustain_PP_A#5.opus
tune=-100
</region>

<region>
hivel=127
key=A#3
loop_end=251781
loop_mode=loop_continuous
loop_start=65681
loop_xfade=22279
lovel=0
lpc=TR8aQtlkicLjE6dBM+YlQGLhV0F65TrAB2VcPVFyT8AI4K6/DtTDP5svGT87Q7O/rCK6vTPnz790ySQ//3WZP5vuFL51IH8/Zlj0PuASR79UCyq/KCSSvkJtnb+XO/c/
lpc_rms=-38.08
sample=Alto_sustain_PP_A3.opus
tune=-103
</region>

<region>
hivel=127
key=A#4
loop_end=266717
loop_mode=loop_continuous
loop_start=69578
loop_xfade=23600
lovel=0
lpc=nS0SQoVuj8IENDdCLkXbwaqhAULwsqnBk5CRQdA5XMFiOae/fS+UQMQTI0AcRhPB7O0gQbzbn8AunxvA/yjZQDjvw8CG8JlAy9Lbv58jvj/NXve/1zC6P4reh8CrIX1A
lpc_rms=-30.44
sample=Alto_sustain_PP_A4.opus
tune=-99
</region>

<region>
hivel=127
key=A#5
loop_end=267462
loop_mode=loop_continuous
loop_start=69772
loop_xfade=23666
lovel=0
lpc=DU8mQpmd6sEG9K9A0qAtwWVkqEEz+0TBc9GqQORker4bLfW/u5qFQB28hr8hhHLAJFH3QHMACsD+3gnAKhZbQPAVSj9VIPe/V5rcPyWgtb8qTsJAvPpDv66XpL9mn37B
lpc_rms=-23.59
sample=Alto_sustain_PP_A5.opus
tune=-98
</region>

<region>
hikey=C4
hivel=127
lokey=C4
loop_end=266123
loop_mode=loop_continuous
loop_start=69423
loop_xfade=23548
lovel=0
lpc=lXp5QlvqAMMGrH1Ch6IjwM9rrEEIgEvBmbMpQJq04MCFTI2/Nml8QGhNgj4sHITAF9FOQMK6HMBkjLM9WYIRQIce7b/FWWdAJRoHP8hTlcC/ToQ/Hw4XvpgyKT94gBU/
lpc_rms=-31.92
sample=Alto_sustain_PP_B3.opus
tune=-101
</region>

<region>
hivel=127
key=C5
loop_end=272874
loop_mode=loop_continuous
loop_start=71184
loop_xfade=24145
lovel=0
lpc=28CnQcxwDcJUOYpBUvFCwTFUg0ELtQ/BW5k4QfCJM8FC/5ZAUDKqwIlw0EBVgKLASVq9QEwhq8C+Lz2/lruCQG6bLsB+lpVA7pMcwEu+gj9C3yvAOjO4P12QWMAMDoFA
lpc_rms=-31.37
sample=Alto_sustain_PP_B4.opus
tune=-101
</region>

<region>
hivel=127
key=C6
loop_end=269904
loop_mode=loop_continuous
loop_start=70409
loop_xfade=23883
lovel=0
lpc=XtURQoz6dMGv+mpAG28dwf5RLkH5fafANmR/QDymLEASq42/DPK7v25I6UCP7W7AeJOrQFFBt79jdbe/kMJCP7VbMkBch1q/PTVGQOtakT+mDlPAw6xDwWHgrsB/8zpA
lpc_rms=-20.91
sample=Alto_sustain_PP_B5.opus
tune=-99
</region>

<region>
hivel=127
key=D4
loop_end=260699
loop_mode=loop_continuous
loop_start=68008
loop_xfade=23068
lovel=0
lpc=83RcQloM4sItn4ZCZvqzwbaN+UHq4sXBFsSEQZmE1MDyA0HBIXDZQDW4UUGmsI7BmocZQSus1sB29P8/eSnQQOGJx8DoJNZA3P2IwNjjB8DIzUlAwfYTv+lKqMBOOqFA
lpc_rms=-30.09
sample=Alto_sustain_PP_C#4.opus
tune=-101
</region>

<region>
hivel=127
key=D5
loop_end=253595
loop_mode=loop_continuous
loop_start=66155
loop_xfade=22439
lovel=0
lpc=B4WxQaXW4MG9+/xAo4lMwT6jikF8J+LACxQ5QWCzvcAC2Sy94epDwOtBQT/aqT2/jmNnQG6toL8DIwjAMzBsQNt1zL9wrnNApj28v39c8j9Z65fAyh+NP201OcCH8LxA
lpc_rms=-32.51
sample=Alto_sustain_PP_C#5.opus
tune=-99
</region>

<region>
hivel=127
key=C#4
loop_end=257275
loop_mode=loop_continuous
loop_start=67115
loop_xfade=22765
lovel=0
lpc=DIDZQkm3WcOyQOJCglPJwcchREJITLbBcYRAQfTtjMGYjGPB+2W/QdwDGED0T5nBZd/CQB9cycBW59E/r3wpQZTfpMDjpo5Auac3QDX9nsBswsw/hJfVv9ZQMcG91DZB
lpc_rms=-26.34
sample=Alto_sustain_PP_C4.opus
tune=-101
</region>

<region>
hivel=127
key=C#5
loop_end=257306
loop_mode=loop_continuous
loop_start=67123
loop_xfade=22768
lovel=0
lpc=e3UAQcOBQsG75Z9ARQOewEWiA0FSh5zA4RhvQJ2xGsDsbSe9VaGqPhSbJL0saXC/Z1IRQHW7RL9jTBe/mKBIPoKp8b59ICI/hT6kPvmwmz9t7vG/W+sTP9IRr79jGNY/
lpc_rms=-39.93
sample=Alto_sustain_PP_C5.opus
tune=-97
</region>

<region>
hivel=127
key=C#6
loop_end=253246
loop_mode=loop_continuous
loop_start=66064
loop_xfade=22408
lovel=0
lpc=x5+BQv+FlsHAHYfAyUmMwbBBmkHUObM/Z+cMQTehG0Gg25A+K04NQXz4dUH98EjAevA/QfxtBUEuTQpAYMCPQFV3UkF9xL1ArVsdQZLHkcCJ7aPBw4gcwSQeYUEKM6lB
lpc_rms=-17.28
sample=Alto_sustain_PP_C6.opus
tune=-100
</region>

<region>
hivel=127
key=E4
loop_end=260856
loop_mode=loop_continuous
loop_start=68049
loop_xfade=23082
lovel=0
lpc=pjtNQrFR7cJeA6RCZ83awUADFkJSSPbBgyNZQeUeG8H90A7B7ROPQbgwNcA+1Q7B9Bs/QT5eMsH1WP4/RPXsQPWmxMCPasA+yGFBP/jJyD6SJ1O+xIreP+cUc8Bj6hJA
lpc_rms=-29.77
sample=Alto_sustain_PP_D#4.opus
tune=-100
</region>

<region>
hivel=127
key=E5
loop_end=277664
loop_mode=loop_continuous
loop_start=72434
loop_xfade=24569
lovel=0
lpc=EY2nQqdd6MI3PUNCNRVDwuBQeUIeyQXCSCsXQmLmgcGe3ew/wBUnwUF0vEAgRUzB7wPdQRC5MMGD7nS/XYs6QYCEQcFqCVBAuS/Rv0EBBkHX/gLBnIQUQbsvtT//hgM/
lpc_rms=-20.43
sample=Alto_sustain_PP_D#5.opus
tune=-99
</region>

<region>
hivel=127
key=D#4
loop_end=258082
loop_mode=loop_continuous
loop_start=67325
loop_xfade=22836
lovel=0
lpc=/aWqQhbWQcP84QFDPfsnwhqYUUJGphPCkA1NQbs2DMGJg1pA9epAv751TEAECpPBsa+dQYIEM8GIiHFAcEkAQQUoR8FveTBBqexDP/V43MAJ+JBAAC/NwBastb53Z4BA
lpc_rms=-25.21
sample=Alto_sustain_PP_D4.opus
tune=-99
</region>

<region>
hivel=127
key=D#5
loop_end=268815
loop_mode=loop_continuous
loop_start=70125
loop_xfade=23786
lovel=0
lpc=5uCQQuK7zcLL1ERC2KUswnxedUI0kinCZ4zfQfZyAMEoCjHAAjAzQfLDFsEgI/O+RagFQUMM2sD/XxVASsRCQbi10sBpmTfAl1OAPlx1NkFjAVLBrUcaQateKMG+f29B
lpc_rms=-21.83
sample=Alto_sustain_PP_D5.opus
tune=-100
</region>

<region>
hivel=127
key=F4
loop_end=258301
loop_mode=loop_continuous
loop_start=67383
loop_xfade=22856
lovel=0
lpc=9wxYQq+148I48YxCus7XwWP6FUIHqtfBtzhiQedoFcGzi2Y/BaGYQL09Fr8emynBv4AQQeNyf8AyKZa/n9kMQb/UF8FehoZAYIcwQB5qJMBz2UE/sxUcvUn+ocDBGJZA
lpc_rms=-29.57
sample=Alto_sustain_PP_E4.opus
tune=-98
</region>

<region>
hivel=127
key=F5
loop_end=295801
loop_mode=loop_continuous
loop_start=77165
loop_xfade=26174
lovel=0
lpc=l3GAQnXmqMJsRB1CKQsDwr7dNkKBVfTB3Oi/QfX9ksAyiFLAzl67P6HIUUA8vaLAb0yOQeIDScF/8cU/ss+WQEnI7T/cDT/AKapKQBXaoUBwGIbAiWCwQFdpxr6PaKBA
lpc_rms=-21.98
sample=Alto_sustain_PP_E5.opus
tune=-99
</region>

<region>
hivel=127
key=G4
loop_end=264939
loop_mode=loop_continuous
loop_start=69114
loop_xfade=23443
lovel=0
lpc=9qO3QkH2RcO8RgZDf1J4wlIMikIamUrC/PggQnjolsEhaaDBAP9LQcWOdkFYP7zBvBS5Qadwg8GjD6jAiYFjQQhSJMFlgQRBYcwFwDLVVz+6BUy/Pg6cQNp+LcGtb8lA
lpc_rms=-23.38
sample=Alto_sustain_PP_F#4.opus
tune=-99
</region>

<region>
hivel=127
key=G5
loop_end=253691
loop_mode=loop_continuous
loop_start=66180
loop_xfade=22448
lovel=0
lpc=pPEZQrEEG8IXiRhBxzpxwTzSpUGCOQ/BUvJcQccFZsDsWtu/eugRwAGEN0BxhoM/2zAcQLZhvj9hr9i/YVu/QMxmxMBztp9Aw7b2vxHr2j+++RZARXBrQEhdfkDt8NHA
lpc_rms=-27.49
sample=Alto_sustain_PP_F#5.opus
tune=-99
</region>

<region>
hivel=127
key=F#4
loop_end=274648
loop_mode=loop_continuous
loop_start=71647
loop_xfade=24302
lovel=0
lpc=XJe1Ql+fN8MW0/NC6AuIwiNrl0L6YmvCJPdNQtLM1sFe3kHB8/TVQPZQykHGqiLCUrz1Qf7IbcGTKqXA0H1FQQ4LtsCcNi1Bs93XwAWCkT8LwcrADkO8QJxzzMBTqb5A
lpc_rms=-22.63
sample=Alto_sustain_PP_F4.opus
tune=-100
</region>

<region>
hivel=127
key=F#5
loop_end=266350
loop_mode=loop_continuous
loop_start=69482
loop_xfade=23568
lovel=0
lpc=W097QdvEksGroM1AIcCXwDuqDkEVbzjARJWFQNBoNMBQowU/9Lh6wAj4CUH8+J3AilvAQB3kWcAnvWG/bBTtP+Zy+D+vq0O/ryFBQIqINMDH3fE/fbIDv9Bhtz9zg+o/
lpc_rms=-35.32
sample=Alto_sustain_PP_F5.opus
tune=-99
</region>

<region>
hikey=A3
hivel=127
lokey=G#3
loop_end=262354
loop_mode=loop_continuous
loop_start=68440
loop_xfade=23214
lovel=0
lpc=6IgOQsJ6msJALTBC63WPwJAWM0GiJfXAc/ZlPwCRYcBZyIu/B/8jP0SGaEDeM5s8oQ0kv1JgQsCCxUO/CjltQDxnpL5uTKk+poemv4BOVr/D8ak/9FyYvpdt0L62rfQ+
lpc_rms=-35.87
pitch_keycenter=A3
sample=Alto_sustain_PP_G#3.opus
tune=-99
</region>

<region>
hivel=127
key=A4
loop_end=274575
loop_mode=loop_continuous
loop_start=71628
loop_xfade=24296
lovel=0
lpc=ZJKJQQu/BML9zq1BqB1bwVpya0HMNiTB7iEbQS58vcBEcaK/lUf6Pxqo8j9jM6zAl1W2QI5KiMCy/k4/MwHoP7MX7b8q4cU/6nX0Pj3Nlb/ZmBw/3aMdv3CyAz8kAsI9
lpc_rms=-35.34
sample=Alto_sustain_PP_G#4.opus
tune=-97
</region>

<region>
hivel=127
key=A5
loop_end=263293
loop_mode=loop_continuous
loop_start=68685
loop_xfade=23297
lovel=0
lpc=caJdQaWrTsEXML5AEa+wwAFUlkDU/4LAJBSwQMmd8j7voO+/4p2YP9xOPr8gVlbAMp7LQP07cz47WGS/IP6Kv15oUj9Pe/W/XRA8QAW64j+yQAc+GpbJvxGoBkBVDoHA
lpc_rms=-32.74
sample=Alto_sustain_PP_G#5.opus
tune=-101
</region>

<region>
hivel=127
key=G#4
loop_end=276786
loop_mode=loop_continuous
loop_start=72205
loop_xfade=24491
lovel=0
lpc=RTA8Qhdwv8J1RnlCL34DwgI8D0IUdcjBwoSxQQuGOsH6/B/AvX07QCg2GECdCUvBKuZpQe4gJ8EuWow/1An5QC2/B8GPC/dAbKkAP5/lAsA+tfK/RCwwvsA6KcD9KX1A
lpc_rms=-27.54
sample=Alto_sustain_PP_G4.opus
tune=-98
</region>

<region>
hivel=127
key=G#5
loop_end=246104
loop_mode=loop_continuous
loop_start=64201
loop_xfade=21776
lovel=0
lpc=zIQzQkpVMcIdeblBbtGHwQNKu0FT4FfBi+FCQRzKfkCYxBw/NP+fP0k7rr8N4SHABcdnQc5joz+yaZdAWagfQE+4RcAvrx3AC+sKQUZBK0A6GZlAb07EPzM9LEBUyg2+
lpc_rms=-21.83
sample=Alto_sustain_PP_G5.opus
tune=-99
</region>
</group>

<group>
amp_veltrack=-77.0000
ampeg_attack=2.5
ampeg_release=0.35
group_label=MF
lpc_hicc1=84
lpc_locc1=43
volume=-4

<region>
hivel=127
key=B3
loop_end=264999
loop_mode=loop_continuous
loop_start=69130
loop_xfade=23448
lovel=0
lpc=jTpGQiwJAMNeJudCv+p6wrYhY0KPIzXC9pPsQTN8xMEsk71A9cr4QFa3m8AvdtPApCKXQYXyn8G1PxxB7DqUQGaJOcH+yxRB2qXxwCdtukBql23ArxilQP4JxcAAvi5A
lpc_rms=-25.17
sample=Alto_sustain_MF_A#3.opus
tune=-101
</region>

<region>
hivel=127
key=B4
loop_end=271524
loop_mode=loop_continuous
loop_start=70832
loop_xfade=24026
lovel=0
lpc=RER5QSrM+cH8p6JB6vkrwTowYkFDky3B9t7dQDHzrsBvoe4/EutaPzl8Jz/l83jAM26jQE7wn8BxuTlAsR6mPzlQVcC8ZmRAygZhwAQuZkDHL07AzaGgQJpt3MCi6mtA
lpc_rms=-26.14
sample=Alto_sustain_MF_A#4.opus
tune=-100
</region>

<region>
hivel=127
key=B5
loop_end=265868
loop_mode=loop_continuous
loop_start=69356
loop_xfade=23525
lovel=0
lpc=DBeWQSI9LMGSgKhAdOgEwLa1f0BhKCbAyhWyP44T8z+4Wpa/1sSJvVO2gEDcUU3AoM8BQO8hyD+LiJ6/+vh6P1cSQT8h+Bk/TXkFv7hWtz9htqw/Y2pTvh5UqcA3lqTA
lpc_rms=-23.57
sample=Alto_sustain_MF_A#5.opus
tune=-99
</region>

<region>
hivel=127
key=A#3
loop_end=264569
loop_mode=loop_continuous
loop_start=69017
loop_xfade=23410
lovel=0
lpc=3m8NQu7jq8J0+opCz2D8weBfBELT8unB0ONvQU6dKsH6TodA6HaJQHPMSsCJEQHBloB2QfYwSsEJjz9A7anmQLmx4sA9/CNAc/dmPqKaJ8D4aKo/lA0Wv+dAAUAQT4e/
lpc_rms=-28.70
sample=Alto_sustain_MF_A3.opus
tune=-100
</region>

<region>
hivel=127
key=A#4
loop_end=276424
loop_mode=loop_continuous
loop_start=72110
loop_xfade=24459
lovel=0
lpc=BUy3QS8aKMLLxK1BXlM6wXlSq0ElWIDBXm8wQeheJMFKmY9Az9lgwJFK90AFdSTBdgAVQZHWucASFIU/cS0tQAo3U8CdQrE/yZ2OP+4O3r5pJIq/aKS/P6PyGL4k9B2+
lpc_rms=-23.06
sample=Alto_sustain_MF_A4.opus
tune=-99
</region>

<region>
hivel=127
key=A#5
loop_end=271142
loop_mode=loop_continuous
loop_start=70732
loop_xfade=23992
lovel=0
lpc=2YQaQsC/+cEM/QxBYRyBwOc1OEHACBvBpahLQckMdMBSGkS+9FrUv4I/B0FnjQvBu0hzQdRasMCc2A7AzidiQDnhxz5PP9G+mnsCQSCIQMAJogu/D7wLQJWikUDGHmLB
lpc_rms=-16.74
sample=Alto_sustain_MF_A5.opus
tune=-98
</region>

<region>
hikey=C4
hivel=127
lokey=C4
loop_end=264454
loop_mode=loop_continuous
loop_start=68988
loop_xfade=23400
lovel=0
lpc=pOkhQoRAv8JktphCvEo4wsmSUULPIhXCPA/BQQwpmcFwoJw93w7UQFwDGMBvX4/Ah8FbQdH7U8HSzo1A3kKlQDplAcEKak1A26yXv60iK0ACpeS/Z4hbP4Mp6789ebQ/
lpc_rms=-25.35
sample=Alto_sustain_MF_B3.opus
tune=-101
</region>

<region>
hivel=127
key=C5
loop_end=262398
loop_mode=loop_continuous
loop_start=68451
loop_xfade=23218
lovel=0
lpc=1ChWQfb5vMGRr1JBDETcwEPUG0HT9wXBTNzXQJIjhMCuLd0/oNLQv7K4LEBwkZbAkWaaQKA8U8B9/LQ+fQQBQHaOiL+6yrQ/V/sYwJgoLEBj5qG/rRAWQGkij8CHwiNA
lpc_rms=-29.02
sample=Alto_sustain_MF_B4.opus
tune=-102
</region>

<region>
hivel=127
key=C6
loop_end=269229
loop_mode=loop_continuous
loop_start=70233
loop_xfade=23823
lovel=0
lpc=fsoBQu0fncFQzIbAl3KiwKtBT0Fr1CfAGYvLP6/GIkDngfw/kk0MwN9YDEHf6KXAURFqQDQJjUDJTmXAvIaEQP2eAUBiVS+/TH9xQEAOeUCkeLvAaAQPwfVelL89KyZB
lpc_rms=-17.23
sample=Alto_sustain_MF_B5.opus
tune=-98
</region>

<region>
hivel=127
key=D4
loop_end=269637
loop_mode=loop_continuous
loop_start=70340
loop_xfade=23859
lovel=0
lpc=eoMpQgyFz8Jf0qdCriAXwogjKEIlhyjCvzO4QccP5sCD60zAOojiQJknbsCCGQTBS5FkQYVGGsG9MItAnp0iQBlVAMEFNPhADJc+wDMF9z9mp4jAl8AqP6MqnD9vf+c+
lpc_rms=-26.16
sample=Alto_sustain_MF_C#4.opus
tune=-102
</region>

<region>
hivel=127
key=D5
loop_end=269461
loop_mode=loop_continuous
loop_start=70294
loop_xfade=23843
lovel=0
lpc=PBE7QWP3X8EEmQBABmdBwMvD/kCfLG/AsNIjQDkBc7+CTES/Xhj3PSKzH0BQhn/AlZEvQOkgkr/mwvA9JjhyvtItMD+mrQpATT2GvwSAEUDixBnAWWmWv8EEgL9xCE9A
lpc_rms=-26.83
sample=Alto_sustain_MF_C#5.opus
tune=-99
</region>

<region>
hivel=127
key=C#4
loop_end=266741
loop_mode=loop_continuous
loop_start=69584
loop_xfade=23603
lovel=0
lpc=dtlpQnAaF8PGTwdDMkGQwiJFkELGepDCF/RTQkbB/sFkSLlAclRFQB8qm0BaWnvB6pyzQRfZq8H2LRBBX5P/QHSoIMGpSt1ARy3kwJO5XECnmFy/wnwnQG/5nsA4rTxA
lpc_rms=-22.48
sample=Alto_sustain_MF_C4.opus
tune=-100
</region>

<region>
hivel=127
key=C#5
loop_end=268686
loop_mode=loop_continuous
loop_start=70091
loop_xfade=23775
lovel=0
lpc=uXGXQWnM68Ff+CFB7VWDwFCeVUE/1RzBWG/DQDB7qcAOUsw/ytnwP4r7xD/gytfAsdmfQE93+74AI1O/lc8zQL67jcD+ixNA/5EePkONnkDzfG3AToKzv2J+R8B9U51A
lpc_rms=-23.57
sample=Alto_sustain_MF_C5.opus
tune=-101
</region>

<region>
hivel=127
key=C#6
loop_end=262970
loop_mode=loop_continuous
loop_start=68600
loop_xfade=23269
lovel=0
lpc=26ESQsgNwMB7pg/BYfYAwaT+AkHq8DVA/NXjPwGUyUCzgCxA7vKNPyOzB0FZY/E9i9ubQGI8rUABB54++t+NQMt9gkAkmIVAWjy1QLF+CL8niXHBscIfwSwXQUGi1mBB
lpc_rms=-17.78
sample=Alto_sustain_MF_C6.opus
tune=-100
</region>

<region>
hivel=127
key=E4
loop_end=270923
loop_mode=loop_continuous
loop_start=70675
loop_xfade=23973
lovel=0
lpc=QUhaQkloC8O1tPJChS1gwt/DZELpcYTC65ZDQonG0sEFpApA9iLGQPjeFkAAI2DBq6iXQZgIWMElN5VAD1+0QIK/CcEovKBAiGtGwDkF2D9y2zrAqhlFQCE0gDyiXz2/
lpc_rms=-19.10
sample=Alto_sustain_MF_D#4.opus
tune=-101
</region>

<region>
hivel=127
key=E5
loop_end=270616
loop_mode=loop_continuous
loop_start=70595
loop_xfade=23946
lovel=0
lpc=TVaCQi6XrsJ8PRNCc3GawUGj60EtPLrBKuOyQdxhy8BTc79AY/HHwFMYXEFSX7HBN7SLQSpVDcFh675AwlrJQMz4TD8uSZ1ALxUmwLGMTb8S6b/ADTSgQJSNOMA8k1pB
lpc_rms=-12.35
sample=Alto_sustain_MF_D#5.opus
tune=-98
</region>

<region>
hivel=127
key=D#4
loop_end=277031
loop_mode=loop_continuous
loop_start=72269
loop_xfade=24513
lovel=0
lpc=QS+WQneyPsMfDx9DVXKSwoufm0IdV5zCq+xnQlixBsImqaXACwmIQUTZ178uR5jBylfnQVFdr8FJPd1A/ejLQEFaEMEOY0hB9bZqwcvfGEGpz9HAMKXfQAkIA8EULIxA
lpc_rms=-19.26
sample=Alto_sustain_MF_D4.opus
tune=-99
</region>

<region>
hivel=127
key=D#5
loop_end=277252
loop_mode=loop_continuous
loop_start=72326
loop_xfade=24533
lovel=0
lpc=C9sNQrP/HMKHYvJA30E2wWROnkEoEdXAfb6cQIErlD7taRDAdxnVPzrinkA6QQ7BUba1QBZYYL996zHAfYwcQFHz8j9/PuhAYJWGvskITkDYd0nBxpjEPy6Hqr+friRB
lpc_rms=-18.02
sample=Alto_sustain_MF_D5.opus
tune=-100
</region>

<region>
hivel=127
key=F4
loop_end=269285
loop_mode=loop_continuous
loop_start=70248
loop_xfade=23828
lovel=0
lpc=h2s+QlIy+8LXwOdCZo5twqH1YUJumnXCt3wjQrn2ecHCSSI+veggQGP+6T5pqmDBS/7GQYgRjcFydbtAS3uwQIboTMGj8v9AjG3SPk7eMD/7XKXAITmGQIktKMCXSrU/
lpc_rms=-21.46
sample=Alto_sustain_MF_E4.opus
tune=-99
</region>

<region>
hivel=127
key=F5
loop_end=280233
loop_mode=loop_continuous
loop_start=73104
loop_xfade=24796
lovel=0
lpc=M/VPQgdEksLzHgVCpCx1wdcB/UG9JcDBxdhEQZp08T4A0XfACCq3QBTmEUDT93/AdvaYQIaunr/oZfK/7nk8QdVoy8B8+4hA6B+YwG4k1kA1PxPAN3B5QL1LWcBV2gZB
lpc_rms=-14.57
sample=Alto_sustain_MF_E5.opus
tune=-99
</region>

<region>
hivel=127
key=G4
loop_end=269734
loop_mode=loop_continuous
loop_start=70365
loop_xfade=23867
lovel=0
lpc=bcdZQvnrAsOYX9lCy5ppwnfjf0Km/nrCdwQWQm6gesEKvSVAtMXzQCePk8A4/FHBjVCaQRUYW8GRbQ5BO+ZVQHjiUsH1T81AqsLMvTFNqkBl8OTAb1pZQBzsg8C+wlpA
lpc_rms=-19.32
sample=Alto_sustain_MF_F#4.opus
tune=-100
</region>

<region>
hivel=127
key=G5
loop_end=248172
loop_mode=loop_continuous
loop_start=64740
loop_xfade=21960
lovel=0
lpc=gHosQtUGPMKgk0xB9FXJwDnim0GG3U3BcK/UQPRUr7+5uJI/3hsiQE11AEGOg3XBWsozQYWagUBE6eo/yPdYQPrAJsC6FqPAP4nCQISTgkAw9XE89Jg0wERciUBQqzc/
lpc_rms=-16.68
sample=Alto_sustain_MF_F#5.opus
tune=-96
</region>

<region>
hivel=127
key=F#4
loop_end=272990
loop_mode=loop_continuous
loop_start=71214
loop_xfade=24156
lovel=0
lpc=v3MvQmUy2sId2rlCNBIxwigXMkJzqR3CTD2kQVZJj8FA+u5AYY7EQLXdAj+sao7Bk63SQc1FmcGEL7dALMudQMUbCMGjgEZA8Qn3v5EHykDbGZ/A9ckCQdCcUMHi5dZA
lpc_rms=-22.42
sample=Alto_sustain_MF_F4.opus
tune=-99
</region>

<region>
hivel=127
key=F#5
loop_end=278039
loop_mode=loop_continuous
loop_start=72532
loop_xfade=24602
lovel=0
lpc=DHh3QcyNiMHfhthA8KBcwARO80DDPKjAPEIWQEgplEAZFIrAzfJ0QLT5Yj9wsVDAQqW+P/cBCkAP9AY/aOHoP0fbpz/4fqC/c5kzv91JsT9jXcg/zZ3Uvnj9qj8emxdA
lpc_rms=-26.05
sample=Alto_sustain_MF_F5.opus
tune=-95
</region>

<region>
hikey=A3
hivel=127
lokey=G#3
loop_end=281092
loop_mode=loop_continuous
loop_start=73328
loop_xfade=24872
lovel=0
lpc=boZrQgvtGcOc3AtD5gyOwp8scEKz90zCd/sLQk4Gx8GCroE/w/IbQbnlrz/57nPB7EzDQRaJvsEzwSFBcTDOQJh0FsEsvdtAAbk6wISeVcCVeTRAioeYv0mczT8hQhK/
lpc_rms=-24.77
pitch_keycenter=A3
sample=Alto_sustain_MF_G#3.opus
tune=-98
</region>

<region>
hivel=127
key=A4
loop_end=271531
loop_mode=loop_continuous
loop_start=70834
loop_xfade=24026
lovel=0
lpc=83umQRe8LMI3fQNC4wytwUlgu0Gty5vBtdyAQVCuc8Ge9C5ByjuqwBXrr0AFpy7B7N5MQYUTKcHBTM1AdMp3v6cp/78hb1s/yQuoP/YTGr99BxW/NARfPxdjPL8ysyk/
lpc_rms=-25.61
sample=Alto_sustain_MF_G#4.opus
tune=-99
</region>

<region>
hivel=127
key=A5
loop_end=273153
loop_mode=loop_continuous
loop_start=71257
loop_xfade=24170
lovel=0
lpc=mn4MQrKP38Fo0M9An8OaP2A0T0GsxwLB+p8CQRDBCD/yTqQ/sOkiQJzmCkHsC+/A+2oJQU90MUBFeQXAzji8QCgPfkBHuAq/W3lFQAUJI0D26xpAj5ymP2IlIkHigxDB
lpc_rms=-16.42
sample=Alto_sustain_MF_G#5.opus
tune=-98
</region>

<region>
hivel=127
key=G#4
loop_end=270292
loop_mode=loop_continuous
loop_start=70510
loop_xfade=23917
lovel=0
lpc=7rjBQXkZVcLCMBpCbHWOwYBTokEqJ5jBjZJdQWuXEsF+Ovg/b0V1QGBz8b/UNtbADGglQb0K8sDnEE9AEZwIQE3QM8BeACo+8h8gP6EiFEDX+KDAl7BkQFYYTcAQThdA
lpc_rms=-25.65
sample=Alto_sustain_MF_G4.opus
tune=-98
</region>

<region>
hivel=127
key=G#5
loop_end=263614
loop_mode=loop_continuous
loop_start=68768
loop_xfade=23326
lovel=0
lpc=muW8QZDQr8EHbLRA2fapPidVBkE2k0/AJt4bQCPQ6j/Ev+K/2lm1QFxYLEAZLp/AUVvPQDGQVT8hsEO/9q9aQEEuFD9MePg/QOAKQA69Lz4vsdI+sUAuQDirpUDTSR7A
lpc_rms=-21.00
sample=Alto_sustain_MF_G5.opus
tune=-98
</region>
</group>

<group>
amp_veltrack=-77.0000
ampeg_attack=2.5
ampeg_release=0.35
group_label=FF
lpc_hicc1=127
lpc_locc1=85
volume=-4

<region>
hivel=127
key=B3
loop_end=265983
loop_mode=loop_continuous
loop_start=68980
loop_xfade=12258
lovel=0
lpc=etvRQbOKasKjuS1CSyO8weSO+UHxN+bBjwiqQUFlhsFPOoNAq7/PPv173UA23vvAbHMKQYTmGcFhMzhAR+mHPzqtl79APAVAV+/Dvthm0b5ua4u/zjsOP3gafT/ZEy+/
lpc_rms=-23.15
sample=Alto_sustain_FF_A#3.opus
tune=-99
</region>

<region>
hivel=127
key=B4
loop_end=269758
loop_mode=loop_continuous
loop_start=70371
loop_xfade=23870
lovel=0
lpc=fRBlQZQW48GT5Y9Bi8YawciyYUE9mkjBoCgQQfGBwsCMEeg/gpWePofNDEBSdZbA9jmRQA1ymcDM7y1AyBx+P1x7fL+/DNE9UbUbPEW8UT/RqIq99J5tv2a1rL+PkOw/
lpc_rms=-20.64
sample=Alto_sustain_FF_A#4.opus
tune=-97
</region>

<region>
hivel=127
key=B5
loop_end=263763
loop_mode=loop_continuous
loop_start=68807
loop_xfade=23339
lovel=0
lpc=kUXjQbzrksFWErZAjZpXwMe+CEG0axPAvus4PRfCN0Bn89i/0PCFQJ6aaEDI6ffAujCYQIZVIkDvWBBAQ2kiv/zo7T4dPCU/kY9gP7PmdUCS46m/hB5xv5mDpMDsIpHA
lpc_rms=-12.33
sample=Alto_sustain_FF_A#5.opus
tune=-101
</region>

<region>
hivel=127
key=A#3
loop_end=275609
loop_mode=loop_continuous
loop_start=89745
loop_xfade=41073
lovel=0
lpc=bPjlQSs/i8KsDGpCltn8wfUrE0JPmgzCVaiyQTzJicE9zA9B9aLLv+EAuD+/rP2+i5lcQP7poMDn9DfAbX8PQUzYDsGn8LRADDbtv6+fJEBFzF/Aj2AcQE0+578qomI/
lpc_rms=-24.64
sample=Alto_sustain_FF_A3.opus
tune=-99
</region>

<region>
hivel=127
key=A#4
loop_end=282876
loop_mode=loop_continuous
loop_start=73793
loop_xfade=25030
lovel=0
lpc=IhCxQd6pRcL2HAhCqOpIwSXhpEFiP7DB/R0sQcX4k8DKID5Ax4CPvt6nUMCUIBs/AMrvQJ+g8cBX/Ro+X/QvQFtgUMDdMGpAOX6Fv2MG4z/3QUrAyecaQHroXsAHvhlA
lpc_rms=-16.90
sample=Alto_sustain_FF_A4.opus
tune=-98
</region>

<region>
hivel=127
key=A#5
loop_end=273613
loop_mode=loop_continuous
loop_start=71377
loop_xfade=24211
lovel=0
lpc=Wqi6QfkojcG1Au9AvaKjv7xPtEA0roHAARSBQEyFOUA8TWLAiGpEQAORh0Cj/5/ALvnTQGNm1r/azD0/cnSSQG67JcCiDsQ/InRHQEUCSLwGBZg+0L0lQP2Vh0DSlDfB
lpc_rms=-15.05
sample=Alto_sustain_FF_A5.opus
tune=-101
</region>

<region>
hikey=C4
hivel=127
lokey=C4
loop_end=272385
loop_mode=loop_continuous
loop_start=79001
loop_xfade=8937
lovel=0
lpc=5kKBQWiuCMJNCrRBWmwXwaeEaEHXm3fB9dgwQRC4zcCEDQS/y/00QBJsmj8DIpfAhU/JQBjCqsBZwcM/9V4SQDkHJMC6J8m9jbexvfmUA0BEWSDAtSQHQC1+p7+cYQk/
lpc_rms=-25.89
sample=Alto_sustain_FF_B3.opus
tune=-100
</region>

<region>
hivel=127
key=C5
loop_end=272805
loop_mode=loop_continuous
loop_start=71166
loop_xfade=24139
lovel=0
lpc=5GeBQQzb38FcV2ZBpuYBwRiGTEGiSCTBr3QUQTVN6sAqJzpA1hmUwJq2CEH4vgPBYbvmQMbZh8Cm574/tQohuwue1r7gNbg+/FB5v015xT+CXt+/a+oCQKxDM8CeEyBA
lpc_rms=-21.67
sample=Alto_sustain_FF_B4.opus
tune=-100
</region>

<region>
hivel=127
key=C6
loop_end=271950
loop_mode=loop_continuous
loop_start=70943
loop_xfade=24064
lovel=0
lpc=QQwNQp8WpcHK0hs/dxlnwHcfMEEMbSK/GLWOP/YR1EBDn1fApzf8QCg0l0B0f9TAPODQQI3jskBI4SZA5Oawv69moUDE3e4/4u+QP64n20Dn7E+/0YpDwfcW9sAf/3VB
lpc_rms=-12.68
sample=Alto_sustain_FF_B5.opus
tune=-98
</region>

<region>
hivel=127
key=D4
loop_end=267187
loop_mode=loop_continuous
loop_start=71844
loop_xfade=10835
lovel=0
lpc=7A9kQewt9cGWl6JBMm38wA1JQ0E70zbBcU7RQMxHdMCm/t2/hSE7QDctjT/MPYzA3PzIQOAWp8Cd2B5Aa8S+PF+ld78s7nm/hK8AQCG0hDvFhFa/ZD80Ppl3w74NnNU+
lpc_rms=-23.69
sample=Alto_sustain_FF_C#4.opus
tune=-99
</region>

<region>
hivel=127
key=D5
loop_end=275913
loop_mode=loop_continuous
loop_start=71977
loop_xfade=24414
lovel=0
lpc=l8xqQY8HsMErPNRAsPVOwMtEM0EO2ODA3R1sQOMsGsCJQSE/BoKSvxqmNkBKM4/AiuahQOZLAsADMYO/38XaP8tFdr/O+ww/IX6UP7vlDEAaeSfAq5CavwXC6b+Kp35A
lpc_rms=-20.42
sample=Alto_sustain_FF_C#5.opus
tune=-96
</region>

<region>
hivel=127
key=C#4
loop_end=271122
loop_mode=loop_continuous
loop_start=75851
loop_xfade=11372
lovel=0
lpc=6o+HQSLWEsLMzcxBues4wSuAckE9OWzBQfMqQQuA8MAtFMU+AtVeQKBpjD8Bwq/AFWm8QKRsj8BOBm0+wX9VQB8PEMBMjDG/+V0EQKQoPL8g85C/xtQ/PjIwcT9pW42+
lpc_rms=-23.51
sample=Alto_sustain_FF_C4.opus
tune=-100
</region>

<region>
hivel=127
key=C#5
loop_end=279925
loop_mode=loop_continuous
loop_start=73024
loop_xfade=24769
lovel=0
lpc=dZgqQYnGhsGMMsZAw3Z3wIhlFUFVQKnABFIlQCGEH8AXAMg+w2/tvli3FEB4+QfARj/3P1zxdr8jclm/UQNYP1rib79vKMM/MXHAPmcToD8e4QzAaEuDPd09179WfiFA
lpc_rms=-22.72
sample=Alto_sustain_FF_C5.opus
tune=-104
</region>

<region>
hivel=127
key=C#6
loop_end=267235
loop_mode=loop_continuous
loop_start=69713
loop_xfade=23646
lovel=0
lpc=v3/9QR13NMH6Fz3A/PvPwCp0EUEuSBK/LGHGQCeLI0BD4q5AUuGrPr0T7ED3tto/rld+QOjazEBk5cs8OGfFQGmxO0CqzB9Ak37KQAqnKEASemvBJn2NwKeoKkG7ZDNB
lpc_rms=-14.38
sample=Alto_sustain_FF_C6.opus
tune=-99
</region>

<region>
hivel=127
key=E4
loop_end=276863
loop_mode=loop_continuous
loop_start=72225
loop_xfade=24498
lovel=0
lpc=G3UPQguypcJtB3lC4HDFwSlpAEIaMQnCoCW3QVrBm8HEZBtBc1prwEj6KEFxzlzB7OJlQV1+88BO1qjAGms0QScaS8G5MS1BMJKawDp1JkCd5RDA0v+xPyMtQ78frKg+
lpc_rms=-15.67
sample=Alto_sustain_FF_D#4.opus
tune=-99
</region>

<region>
hivel=127
key=E5
loop_end=253928
loop_mode=loop_continuous
loop_start=66242
loop_xfade=22469
lovel=0
lpc=x7AEQsDfPcK0ZKRBFCQJwTHYfEGZWRfBf+e3QKj4MT9IjbnA2ni4QA7z6L21lm7AcID1QFJ2XcCFCcS/fgJsQEgTr72KOAhALWelvek6mD9Nc2LAuRZ7QBf3l8ApT/BA
lpc_rms=-13.14
sample=Alto_sustain_FF_D#5.opus
tune=-102
</region>

<region>
hivel=127
key=D#4
loop_end=275590
loop_mode=loop_continuous
loop_start=71893
loop_xfade=24386
lovel=0
lpc=/H7iQV1if8IbjjtC4maywVju6UH5tejBTpmoQWwjg8GSd4hAG7ysQJpukj9qRSfBvaA1QULHD8FYu2NA/KdTQMUSesALl6S8GCDCP87EkT/YyFfA8zo6QKHSbb9rPke+
lpc_rms=-17.85
sample=Alto_sustain_FF_D4.opus
tune=-98
</region>

<region>
hivel=127
key=D#5
loop_end=280054
loop_mode=loop_continuous
loop_start=73057
loop_xfade=24781
lovel=0
lpc=eTbVQSoHDcLt0iZBE0zBwAgtbkHxAvXA6JhCQEvjpb4liAQ/ZWkiP6FLB0D4Xr3AorytQIo2BMAIjnW/RXuDQC/Fmr9yna0/GyseQMU0L78QaRjAWQqBvy6OA8Ajk+JA
lpc_rms=-14.72
sample=Alto_sustain_FF_D5.opus
tune=-102
</region>

<region>
hivel=127
key=F4
loop_end=276640
loop_mode=loop_continuous
loop_start=72166
loop_xfade=24479
lovel=0
lpc=Ap7PQUVPdMLZlUlCiELdwXUD8EERRuLBAgKwQUBuhsGtjodA2n9JQI6Yp706HOrA4y9tQbM9H8GRiSw/f+gaP0TFqr/qT84/Q0CnPnPwgz/uAXHAFSO9QMA7vcBWHh1A
lpc_rms=-19.02
sample=Alto_sustain_FF_E4.opus
tune=-98
</region>

<region>
hivel=127
key=F5
loop_end=269855
loop_mode=loop_continuous
loop_start=70397
loop_xfade=23878
lovel=0
lpc=qgoBQq7kJMI0NV5BDkm7wCliXEGvMMfAsA/qQM/fdMCNNFc/YYwswCM8gUAacoY+o8OIQKMJh7/RQZnAQ/X2QI1RcsC0H0dAtNLYP95acL73//u9p/CGPmUGY7/29LpA
lpc_rms=-13.21
sample=Alto_sustain_FF_E5.opus
tune=-98
</region>

<region>
hivel=127
key=G4
loop_end=283842
loop_mode=loop_continuous
loop_start=74045
loop_xfade=25116
lovel=0
lpc=t3HSQTHcdsIYCUBCv2m7wfL/9kH7H/jBzWaZQb3BXcEjTrJAw2d/Px8DQb6nB9G/EEr+QFL/DcF1gLm+WQR1QJGmIMCqlk0/+x0fQIzzB8C3T/I+ypvEPjXNyL9435Q/
lpc_rms=-19.82
sample=Alto_sustain_FF_F#4.opus
tune=-98
</region>

<region>
hivel=127
key=G5
loop_end=270988
loop_mode=loop_continuous
loop_start=70692
loop_xfade=23978
lovel=0
lpc=JqiIQSJ7hsG6iYZApuervvK18UDZyT7ApPzZP1uArz7yAu8/6siQvyZrSkDJOHa/LYdjQJDAJL68x8O/goGJQFCaCz5zrsk+wbDmP5zFH7/XS6I/freSPzlzHkCOu5Q/
lpc_rms=-19.20
sample=Alto_sustain_FF_F#5.opus
tune=-105
</region>

<region>
hivel=127
key=F#4
loop_end=280688
loop_mode=loop_continuous
loop_start=73222
loop_xfade=24837
lovel=0
lpc=Co7VQYRmeMJ9T0JCotm5wf+V20Fswt7BJ96XQYWGR8Fk4PpAlggMwZsxIUG06z7BcVyAQU/fOcE0Abk/eklUQEB3hMDxpBxAeP/kPxtXP8DgKvc/R5Q4wD45H0Cwaj6+
lpc_rms=-17.71
sample=Alto_sustain_FF_F4.opus
tune=-99
</region>

<region>
hivel=127
key=F#5
loop_end=270265
loop_mode=loop_continuous
loop_start=70503
loop_xfade=23914
lovel=0
lpc=YW6kQWIjlsGmu1lAqZNWwIlzBUHur1DAl7sKQBWSGEDhPwlA93GFv5JkUUCAKv/AcEvYQLs+Db8CghRA1q4+QOUmpj86xgrAlq9pPbsl3b67iKE/McLsP60XikBcIxu+
lpc_rms=-16.94
sample=Alto_sustain_FF_F5.opus
tune=-91
</region>

<region>
hikey=A3
hivel=127
lokey=G#3
loop_end=276583
loop_mode=loop_continuous
loop_start=72152
loop_xfade=24473
lovel=0
lpc=5pjuQR+ui8Jw7mRChYYIwo84GUJaR//BnDzGQSUetcEzVBZBOz1CwL7XCEFHLUPBM69XQeScL8F3YVlAXKGZQJF5usBKZqU/3eUiQODuvsBSTIxAl8ZpvwdoM0DQ2g7A
lpc_rms=-21.68
pitch_keycenter=A3
sample=Alto_sustain_FF_G#3.opus
tune=-102
</region>

<region>
hivel=127
key=A4
loop_end=279642
loop_mode=loop_continuous
loop_start=72950
loop_xfade=24744
lovel=0
lpc=KHIUQWFvk8GtaklBK2jXwO25A0FAzebA/ve9QOq6h8BSGmY+wDqtPbFbR0C9/oLAaAt0QIEsRMBUlQ0/7fwMP3j/AL0pLy4/MblQvu7VAL+ddJW9/hxXPby3hD7ZnBM+
lpc_rms=-25.32
sample=Alto_sustain_FF_G#4.opus
tune=-98
</region>

<region>
hivel=127
key=A5
loop_end=271144
loop_mode=loop_continuous
loop_start=70733
loop_xfade=23992
lovel=0
lpc=9DRGQW79D8FqnDVACtkyPXGEgUDQODm/q4vIP4IGPUCXlJm/WP7WP/mzB0CgqqK/nFFZQMNCoT9UU7G9kVToPw+5jz91BNs+TUCrPx8ACkDiTWo/2WfpPmgUTUC6i/2/
lpc_rms=-20.45
sample=Alto_sustain_FF_G#5.opus
tune=-98
</region>

<region>
hivel=127
key=G#4
loop_end=286552
loop_mode=loop_continuous
loop_start=74752
loop_xfade=25356
lovel=0
lpc=0C17QXqSBMK7Lq1BJ2L3wCjrKEGDASDBj0v2QMBy/cDAK3FAsVzYv0BDtEBjnOPAG8PLQF8Bj8DN3Tu/RWRKQIWAl7+baFu/1ygiQIVTHsDwyvo/+gkfwMG91z9kXAu+
lpc_rms=-20.51
sample=Alto_sustain_FF_G4.opus
tune=-98
</region>

<region>
hivel=127
key=G#5
loop_end=270773
loop_mode=loop_continuous
loop_start=70636
loop_xfade=23959
lovel=0
lpc=cCCDQYfOgcFvDs5AL3AUv1sYr0CnZQ3A2EQHQP0i2z8rWaA+65f5Pk4ZXkC8OwLA/eOLQFJ5Zr8UEMG+y4aQQEl7Ez2nW0Q8vsUDQK/Zkj9xauI+iGGjP9xIVECJExa/
lpc_rms=-16.22
sample=Alto_sustain_FF_G5.opus
tune=-100
</region>
</group>